<svg id="svg" xmlns="http://www.w3.org/2000/svg" xmlns:xlink="http://www.w3.org/1999/xlink" width="400" height="75.45219638242894" viewBox="0, 0, 400,75.45219638242894"><g id="svgg"><path id="path0" d="M288.123 7.449 C 287.646 7.573,286.194 8.608,285.740 9.148 C 284.839 10.219,284.839 10.207,284.836 31.537 L 284.833 51.158 285.352 51.427 C 286.291 51.912,286.243 52.900,286.333 31.027 L 286.417 10.737 286.833 10.222 C 287.063 9.939,287.400 9.605,287.583 9.479 C 288.188 9.063,354.890 9.060,355.667 9.476 C 357.020 10.199,356.910 8.380,356.966 31.108 L 357.015 51.299 357.527 51.511 C 358.666 51.983,358.579 53.606,358.626 31.016 L 358.668 10.652 357.967 9.658 C 357.461 8.941,356.959 8.479,356.165 7.999 L 355.063 7.333 321.740 7.353 C 303.412 7.363,288.285 7.406,288.123 7.449 M50.311 21.778 C 49.917 21.883,48.757 23.312,48.333 24.213 C 47.859 25.221,47.263 25.800,46.563 25.932 C 46.251 25.990,45.956 26.102,45.908 26.181 C 45.859 26.260,45.318 26.479,44.705 26.668 C 40.702 27.905,38.225 31.459,39.943 33.501 C 41.062 34.831,43.064 33.648,43.476 31.412 C 43.876 29.241,45.163 27.884,46.685 28.029 L 47.250 28.083 47.205 31.000 C 47.154 34.283,46.911 41.009,46.654 46.250 C 46.365 52.133,46.799 53.488,49.050 53.742 C 51.081 53.972,51.155 53.714,51.342 45.750 C 51.728 29.270,51.852 27.217,52.473 26.972 C 53.215 26.679,57.274 26.932,57.917 27.311 C 58.207 27.482,58.738 27.717,59.097 27.833 C 61.417 28.581,63.020 29.782,64.308 31.738 L 65.083 32.915 65.072 35.208 C 65.063 37.250,65.024 37.553,64.719 37.964 C 64.531 38.219,64.224 38.725,64.037 39.088 C 63.849 39.452,63.432 40.003,63.109 40.313 C 62.473 40.925,62.553 40.921,60.667 40.414 C 59.450 40.087,55.567 40.145,54.546 40.506 C 52.863 41.101,53.051 43.251,54.868 44.183 C 55.708 44.613,59.602 44.642,60.917 44.228 C 62.174 43.832,62.575 44.069,63.389 45.690 C 65.305 49.509,62.901 54.992,58.987 55.726 C 58.663 55.787,58.105 55.986,57.747 56.168 C 56.818 56.642,53.862 56.648,52.940 56.179 C 52.594 56.002,51.809 55.804,51.197 55.738 C 50.584 55.673,49.758 55.480,49.361 55.309 C 47.492 54.508,45.333 55.076,45.333 56.369 C 45.333 57.390,45.694 57.746,47.000 58.010 C 47.504 58.112,48.254 58.309,48.667 58.447 C 49.926 58.871,55.981 58.812,57.360 58.363 C 57.941 58.174,58.904 57.934,59.500 57.830 C 60.096 57.725,60.733 57.506,60.917 57.343 C 61.100 57.180,61.505 56.961,61.816 56.857 C 63.092 56.429,65.914 54.321,66.348 53.472 C 66.527 53.121,66.735 52.833,66.810 52.833 C 66.885 52.833,67.200 52.290,67.511 51.625 C 68.691 49.102,68.342 46.227,66.607 44.165 C 66.365 43.877,66.167 43.577,66.167 43.498 C 66.167 43.420,66.028 43.312,65.859 43.258 C 65.536 43.156,65.167 42.509,65.167 42.047 C 65.167 41.898,65.572 41.396,66.068 40.930 C 66.873 40.173,68.167 38.625,68.167 38.418 C 68.167 38.374,68.394 37.968,68.672 37.516 C 68.951 37.064,69.290 36.182,69.426 35.555 C 69.562 34.929,69.719 34.207,69.776 33.951 C 70.414 31.047,66.353 26.698,62.064 25.693 C 61.708 25.610,61.004 25.376,60.500 25.173 C 59.686 24.846,59.206 24.797,56.218 24.735 C 52.035 24.649,52.080 24.664,51.929 23.327 C 51.754 21.776,51.441 21.477,50.311 21.778 M324.707 23.998 C 324.593 24.180,324.500 24.470,324.500 24.642 C 324.500 24.814,324.356 25.137,324.181 25.360 C 324.006 25.583,323.728 26.175,323.565 26.675 C 323.402 27.174,323.149 27.711,323.004 27.867 C 322.859 28.023,322.646 28.502,322.531 28.931 C 322.417 29.360,322.175 29.898,321.995 30.127 C 321.815 30.356,321.585 30.852,321.483 31.229 C 321.382 31.605,321.166 32.102,321.005 32.332 C 320.843 32.562,320.653 32.938,320.583 33.167 C 320.512 33.396,320.240 33.988,319.977 34.482 C 319.715 34.976,319.500 35.544,319.500 35.745 C 319.500 35.946,319.313 36.479,319.084 36.930 C 318.855 37.381,318.583 38.012,318.479 38.333 C 318.376 38.654,318.159 39.217,317.996 39.583 C 317.314 41.125,317.167 41.569,317.167 42.083 C 317.167 44.041,318.597 42.628,319.570 39.708 C 319.716 39.273,320.022 38.548,320.251 38.097 C 320.479 37.646,320.667 37.151,320.667 36.998 C 320.667 36.844,320.818 36.582,321.003 36.414 C 321.187 36.247,321.385 35.818,321.442 35.461 C 321.499 35.104,321.720 34.556,321.932 34.244 C 322.144 33.931,322.410 33.355,322.522 32.963 C 322.635 32.571,322.853 32.063,323.007 31.833 C 323.161 31.604,323.383 31.117,323.501 30.750 C 323.618 30.383,323.929 29.679,324.191 29.185 C 324.452 28.691,324.667 28.203,324.667 28.102 C 324.668 28.000,324.855 27.548,325.084 27.097 C 325.313 26.646,325.500 26.183,325.500 26.069 C 325.500 25.955,325.652 25.507,325.838 25.073 C 326.322 23.943,325.330 23.000,324.707 23.998 M249.037 25.966 C 247.568 26.116,246.280 28.682,245.988 32.042 C 245.607 36.432,245.206 37.240,243.492 37.071 C 241.441 36.869,241.061 38.429,242.957 39.272 C 244.595 40.002,244.883 40.391,244.787 41.750 C 244.683 43.228,244.032 45.951,243.649 46.510 C 243.488 46.744,243.227 47.269,243.069 47.676 C 242.912 48.083,242.653 48.567,242.495 48.750 C 242.337 48.933,242.120 49.359,242.012 49.695 C 241.904 50.031,241.703 50.401,241.564 50.516 C 241.425 50.631,241.192 50.956,241.047 51.238 C 239.964 53.333,237.702 55.199,236.807 54.736 C 236.062 54.351,236.058 53.897,236.744 48.250 C 237.356 43.219,237.388 39.536,236.829 38.493 C 236.278 37.463,233.517 36.910,232.705 37.667 C 232.508 37.850,232.288 38.001,232.215 38.003 C 232.090 38.006,230.720 39.313,230.145 39.979 C 228.988 41.318,226.450 45.038,226.238 45.703 C 226.187 45.867,226.076 46.000,225.992 46.000 C 225.909 46.000,225.690 46.295,225.506 46.655 C 224.770 48.099,224.506 47.707,224.503 45.165 C 224.500 43.398,224.535 43.182,224.948 42.415 C 225.547 41.304,225.749 37.718,225.244 37.161 C 224.760 36.625,223.246 36.950,222.335 37.786 C 222.107 37.995,221.841 38.167,221.745 38.167 C 221.433 38.167,220.191 39.564,219.893 40.250 C 219.665 40.776,219.584 41.602,219.510 44.172 L 219.417 47.427 218.691 48.628 C 218.291 49.288,217.749 50.074,217.485 50.373 C 217.221 50.672,217.004 50.979,217.003 51.054 C 216.995 51.459,213.704 54.329,212.917 54.618 C 209.261 55.960,206.602 54.966,205.287 51.766 C 204.563 50.001,204.640 49.820,206.250 49.511 C 207.845 49.204,209.944 48.506,210.590 48.068 C 210.918 47.845,211.494 47.506,211.871 47.314 C 216.089 45.162,216.793 39.347,213.052 37.554 C 211.980 37.041,208.520 37.147,207.417 37.727 C 206.958 37.968,206.486 38.166,206.366 38.166 C 205.397 38.169,201.819 42.167,201.553 43.545 C 201.496 43.841,201.264 44.492,201.038 44.991 C 200.812 45.490,200.565 46.393,200.489 46.997 C 200.354 48.074,199.757 49.356,198.845 50.526 C 198.655 50.770,198.500 51.040,198.500 51.126 C 198.500 51.212,198.347 51.459,198.159 51.675 C 197.972 51.892,197.654 52.334,197.454 52.658 C 197.253 52.983,196.732 53.603,196.296 54.037 C 194.123 56.198,193.003 54.457,193.999 50.467 C 194.212 49.615,194.405 48.058,194.501 46.417 C 194.587 44.950,194.708 42.947,194.770 41.965 C 194.923 39.548,194.633 38.559,193.560 37.835 C 192.103 36.852,189.902 37.334,188.583 38.926 C 187.599 40.113,187.078 40.725,186.750 41.076 C 186.567 41.273,185.986 42.067,185.460 42.842 C 184.934 43.616,184.355 44.438,184.172 44.667 C 183.990 44.896,183.839 45.148,183.837 45.228 C 183.835 45.308,183.627 45.621,183.375 45.924 C 183.123 46.228,182.794 46.650,182.645 46.863 L 182.372 47.249 182.103 46.604 C 181.625 45.460,181.766 43.836,182.512 41.917 C 183.390 39.657,183.169 36.990,182.094 36.863 C 180.032 36.618,177.083 39.606,176.904 42.122 C 176.773 43.968,176.714 44.155,176.204 44.360 C 175.954 44.460,175.563 44.616,175.333 44.707 C 175.104 44.798,174.786 44.938,174.627 45.019 C 173.683 45.500,173.043 44.805,172.766 43.000 C 172.468 41.052,171.609 39.664,169.544 37.792 C 168.164 36.541,165.165 36.491,162.333 37.672 C 161.921 37.844,161.124 38.032,160.563 38.090 C 159.610 38.188,159.369 38.292,158.058 39.181 C 156.186 40.448,154.429 43.153,153.899 45.583 C 153.548 47.196,153.160 48.312,152.713 49.000 C 151.949 50.176,151.441 50.916,151.265 51.112 C 151.165 51.223,150.903 51.562,150.683 51.865 C 149.715 53.201,147.461 54.764,146.289 54.914 C 145.809 54.975,145.167 55.090,144.862 55.170 C 143.565 55.506,140.500 54.063,140.500 53.115 C 140.500 53.034,140.360 52.769,140.188 52.526 C 139.186 51.105,139.178 46.272,140.174 44.333 C 140.339 44.012,140.556 43.490,140.657 43.172 C 141.178 41.537,143.093 39.456,144.283 39.233 C 146.231 38.867,146.750 39.445,146.750 41.979 C 146.750 44.266,146.855 44.500,147.882 44.500 C 149.838 44.500,151.044 40.757,149.743 38.724 C 148.822 37.285,144.815 36.724,142.667 37.733 C 142.162 37.970,141.645 38.164,141.516 38.165 C 141.160 38.168,139.878 39.136,138.754 40.250 C 137.126 41.865,136.279 43.527,135.491 46.660 C 135.319 47.343,135.039 48.093,134.870 48.326 C 134.700 48.559,134.507 48.893,134.442 49.069 C 134.259 49.559,132.825 51.667,132.674 51.667 C 132.601 51.667,132.441 51.908,132.319 52.202 C 131.580 53.985,129.031 55.493,128.484 54.470 C 128.247 54.027,128.404 51.276,128.742 49.966 C 129.048 48.778,129.383 43.405,129.310 40.859 L 129.250 38.801 128.427 38.067 C 126.232 36.110,123.749 37.577,120.000 43.046 C 119.496 43.781,118.914 44.615,118.708 44.900 C 118.501 45.184,118.154 45.683,117.935 46.008 C 117.683 46.384,117.319 46.666,116.936 46.784 L 116.333 46.969 116.335 45.526 C 116.336 44.685,116.446 43.736,116.599 43.250 C 117.325 40.937,117.788 38.340,117.604 37.607 C 117.259 36.233,114.566 37.164,112.618 39.330 C 111.808 40.231,111.793 40.280,111.583 42.743 C 111.473 44.027,111.357 44.249,110.713 44.411 C 110.471 44.472,109.996 44.655,109.658 44.818 C 108.315 45.467,107.644 44.945,107.425 43.083 C 106.838 38.082,101.260 35.212,96.919 37.676 C 96.643 37.833,95.967 38.010,95.417 38.069 C 94.338 38.186,93.333 38.488,93.333 38.696 C 93.333 38.767,93.091 38.950,92.794 39.104 C 91.893 39.569,90.384 41.324,89.912 42.453 C 89.768 42.797,89.512 43.230,89.342 43.414 C 89.172 43.599,88.901 44.237,88.741 44.833 C 88.580 45.429,88.396 45.992,88.333 46.083 C 88.269 46.175,88.093 46.642,87.940 47.120 C 87.788 47.599,87.476 48.266,87.248 48.602 C 87.020 48.938,86.832 49.296,86.830 49.398 C 86.827 49.500,86.490 50.071,86.079 50.667 C 85.669 51.262,85.082 52.127,84.775 52.588 C 83.338 54.749,81.171 55.665,80.901 54.226 C 80.733 53.328,80.969 50.039,81.322 48.372 C 82.362 43.459,81.964 42.429,79.015 42.398 C 76.441 42.371,76.228 42.203,76.832 40.671 L 77.163 39.830 76.808 38.747 C 76.000 36.286,73.261 35.280,72.415 37.133 C 72.260 37.472,71.991 38.055,71.817 38.428 C 71.265 39.608,71.854 42.167,72.677 42.167 C 72.744 42.167,72.975 42.360,73.191 42.595 C 73.648 43.095,74.847 43.667,75.437 43.667 C 76.949 43.667,77.576 44.585,77.154 46.180 C 76.328 49.299,76.385 56.566,77.243 57.424 C 77.864 58.044,80.579 58.301,81.862 57.860 C 82.644 57.591,84.342 55.897,85.419 54.312 C 85.876 53.639,86.378 52.946,86.533 52.772 C 86.689 52.597,86.863 52.245,86.919 51.989 C 87.237 50.542,88.763 51.310,88.821 52.946 C 88.828 53.145,89.005 53.520,89.216 53.779 C 89.426 54.038,89.729 54.551,89.890 54.919 C 90.323 55.912,91.682 57.150,93.000 57.752 C 94.252 58.324,99.393 58.208,100.713 57.577 C 102.108 56.912,103.482 56.029,104.083 55.413 C 104.443 55.044,105.290 53.895,105.494 53.500 C 105.612 53.271,105.847 52.931,106.016 52.744 C 106.364 52.360,107.030 50.430,107.353 48.868 C 107.689 47.240,108.395 46.667,111.026 45.885 C 111.654 45.698,111.733 49.933,111.180 54.120 C 110.733 57.497,111.081 58.000,113.863 58.000 C 115.410 58.000,115.388 58.007,116.014 57.266 C 116.021 57.257,116.089 55.900,116.164 54.250 C 116.307 51.107,116.647 49.699,117.494 48.750 C 117.658 48.567,117.888 48.229,118.005 48.000 C 118.123 47.771,118.350 47.433,118.510 47.250 C 118.670 47.067,119.068 46.617,119.393 46.250 C 119.719 45.883,120.307 45.164,120.701 44.651 C 123.345 41.208,124.755 41.348,124.441 45.021 C 124.000 50.167,123.889 56.079,124.220 56.869 C 124.684 57.980,127.697 58.522,129.333 57.788 C 130.258 57.374,132.465 54.993,133.411 53.388 C 133.583 53.097,133.890 52.770,134.093 52.661 C 134.297 52.552,134.561 52.281,134.680 52.059 C 134.940 51.573,135.117 51.790,135.366 52.895 C 135.643 54.130,136.680 55.582,138.435 57.192 C 139.755 58.403,145.210 58.419,146.982 57.217 C 147.292 57.006,147.636 56.833,147.746 56.833 C 148.281 56.833,151.093 54.248,151.955 52.964 C 152.291 52.463,153.291 51.667,153.584 51.667 C 153.620 51.667,153.813 52.117,154.013 52.667 C 154.214 53.217,154.432 53.667,154.497 53.667 C 154.562 53.667,154.755 53.985,154.925 54.375 C 155.459 55.596,156.635 56.748,158.358 57.737 C 159.342 58.303,165.048 58.197,166.136 57.593 C 166.382 57.456,166.958 57.160,167.417 56.935 C 168.476 56.414,169.968 54.993,170.588 53.917 C 170.851 53.458,171.154 53.029,171.262 52.962 C 171.369 52.896,171.551 52.596,171.667 52.296 C 171.782 51.996,172.024 51.430,172.204 51.040 C 172.384 50.649,172.598 49.804,172.678 49.161 C 172.905 47.353,173.108 47.114,175.055 46.362 L 176.361 45.858 176.622 46.471 C 176.911 47.150,176.682 54.431,176.332 55.685 C 175.927 57.136,176.765 57.872,179.045 58.069 C 181.406 58.273,181.701 57.850,181.773 54.167 C 181.841 50.683,182.371 48.793,183.503 48.000 C 183.568 47.954,183.672 47.756,183.733 47.559 C 183.795 47.362,184.086 46.931,184.381 46.601 C 184.676 46.272,185.179 45.663,185.500 45.250 C 189.310 40.337,190.133 41.097,189.599 49.031 C 189.031 57.466,189.202 58.017,192.408 58.061 C 194.714 58.093,196.001 57.322,197.795 54.833 C 198.092 54.421,198.579 53.746,198.878 53.333 C 199.176 52.921,199.511 52.377,199.623 52.125 C 199.912 51.473,200.130 51.554,200.516 52.455 C 200.702 52.889,200.914 53.282,200.987 53.330 C 201.060 53.378,201.254 53.679,201.419 54.000 C 201.880 54.902,202.746 55.969,203.447 56.500 C 203.797 56.765,204.289 57.141,204.540 57.335 C 205.849 58.349,210.687 58.416,212.160 57.441 C 212.487 57.225,212.932 56.991,213.149 56.922 C 213.917 56.678,216.141 54.823,217.451 53.333 C 217.652 53.104,217.899 52.842,217.999 52.750 C 218.099 52.658,218.271 52.453,218.382 52.295 C 218.945 51.489,219.113 52.286,219.013 55.292 C 218.938 57.555,219.233 57.859,221.704 58.062 C 223.354 58.197,223.755 57.826,223.883 56.045 C 224.115 52.830,224.509 50.427,224.900 49.831 C 225.112 49.509,225.337 49.085,225.399 48.888 C 225.462 48.692,225.617 48.491,225.744 48.442 C 225.871 48.393,226.094 48.105,226.240 47.802 C 226.386 47.498,226.729 46.996,227.003 46.686 C 227.276 46.375,227.500 46.075,227.500 46.019 C 227.501 45.963,227.725 45.654,228.000 45.333 C 228.275 45.012,228.499 44.697,228.500 44.631 C 228.500 44.566,229.044 43.959,229.708 43.282 C 231.067 41.898,231.893 41.684,232.314 42.607 C 232.658 43.361,232.456 49.618,231.997 52.437 C 231.535 55.274,231.986 57.402,233.146 57.866 C 233.922 58.176,236.904 58.101,237.427 57.759 C 238.625 56.974,242.000 53.111,242.000 52.525 C 242.000 52.433,242.177 52.147,242.393 51.888 C 242.609 51.629,242.918 51.160,243.079 50.846 L 243.372 50.276 243.682 50.679 C 243.952 51.030,243.993 51.402,243.996 53.512 C 244.003 57.618,244.361 58.086,247.487 58.079 C 250.065 58.073,251.347 57.331,253.027 54.871 C 253.323 54.438,253.662 54.008,253.780 53.917 C 253.967 53.771,254.845 52.413,255.398 51.414 C 255.500 51.230,255.739 50.855,255.929 50.581 C 256.119 50.307,256.374 49.836,256.494 49.534 C 256.707 49.002,257.388 48.500,257.899 48.500 C 258.035 48.500,258.492 48.840,258.913 49.255 C 259.896 50.224,259.849 50.847,258.704 52.000 C 255.836 54.888,255.365 57.283,257.465 58.295 C 258.386 58.738,259.831 58.796,260.556 58.418 C 260.815 58.283,261.333 58.090,261.707 57.989 C 264.233 57.309,265.900 53.712,264.853 51.200 C 264.049 49.272,264.030 48.952,264.694 48.489 C 265.000 48.276,265.405 47.947,265.595 47.759 C 265.784 47.571,266.159 47.288,266.428 47.130 C 266.697 46.972,267.067 46.747,267.250 46.630 C 267.433 46.513,267.906 46.210,268.300 45.958 C 268.694 45.706,269.069 45.499,269.133 45.498 C 269.198 45.497,269.576 45.238,269.974 44.921 C 270.372 44.605,270.842 44.300,271.018 44.244 C 271.525 44.083,271.914 43.009,271.585 42.680 C 271.377 42.472,271.272 42.462,271.039 42.626 C 270.880 42.738,270.475 42.979,270.140 43.161 C 269.804 43.343,269.281 43.718,268.978 43.996 C 268.674 44.273,268.339 44.500,268.233 44.500 C 268.127 44.500,267.939 44.623,267.815 44.773 C 267.690 44.923,267.325 45.215,267.002 45.421 C 266.680 45.628,266.251 45.956,266.049 46.149 C 265.846 46.342,265.599 46.500,265.499 46.500 C 265.400 46.500,265.133 46.685,264.907 46.911 C 263.753 48.066,262.704 47.883,261.582 46.333 C 261.308 45.954,261.004 45.556,260.908 45.447 C 259.722 44.114,260.028 41.128,261.525 39.428 C 263.097 37.642,264.440 37.685,265.716 39.560 C 266.105 40.132,266.261 40.115,266.484 39.475 C 267.470 36.646,263.891 35.161,260.253 36.889 C 257.216 38.331,255.484 41.657,256.133 44.802 C 256.488 46.519,256.143 47.596,254.355 50.349 C 253.013 52.416,252.779 52.722,251.760 53.746 C 249.481 56.036,248.458 55.113,248.715 51.000 C 248.758 50.313,248.886 47.725,248.999 45.250 C 249.253 39.674,249.298 39.561,251.417 39.257 C 251.875 39.191,252.512 38.992,252.833 38.814 C 253.154 38.637,253.894 38.362,254.477 38.204 C 255.402 37.953,255.582 37.837,255.893 37.289 C 256.444 36.321,255.795 36.139,254.250 36.828 C 253.883 36.991,253.321 37.181,253.000 37.250 C 252.679 37.318,252.138 37.515,251.798 37.687 C 249.970 38.613,249.827 38.264,250.052 33.417 C 250.398 25.967,250.379 25.829,249.037 25.966 M311.083 27.034 C 310.900 27.138,310.262 27.632,309.667 28.130 C 309.071 28.628,308.337 29.234,308.035 29.476 C 307.733 29.718,307.206 30.179,306.863 30.500 C 306.236 31.087,305.242 31.911,304.896 32.131 C 304.793 32.197,304.513 32.540,304.274 32.894 L 303.839 33.537 304.410 34.205 C 304.971 34.860,306.071 35.844,307.161 36.667 C 308.445 37.636,309.799 38.760,310.500 39.439 C 311.268 40.184,311.611 40.297,312.178 39.994 C 312.690 39.720,312.096 38.767,310.726 37.667 C 310.098 37.162,309.406 36.591,309.188 36.396 C 308.970 36.201,308.540 35.826,308.233 35.563 C 307.480 34.915,306.167 33.635,306.167 33.548 C 306.167 33.177,309.830 29.821,311.221 28.918 C 312.710 27.951,312.580 26.179,311.083 27.034 M330.033 27.033 C 329.682 27.385,329.808 27.580,331.042 28.591 C 332.170 29.516,333.113 30.344,335.037 32.101 C 336.118 33.088,336.207 33.537,335.458 34.243 C 335.137 34.546,334.846 34.862,334.812 34.946 C 334.778 35.029,333.925 35.798,332.917 36.655 C 329.783 39.319,329.492 39.676,330.072 40.157 C 330.475 40.492,331.341 40.115,332.395 39.148 C 332.933 38.654,333.638 38.006,333.962 37.708 C 334.286 37.410,334.600 37.167,334.661 37.167 C 334.721 37.167,334.916 37.035,335.094 36.875 C 335.271 36.714,335.893 36.208,336.476 35.750 C 337.059 35.292,337.600 34.842,337.680 34.750 C 337.760 34.658,338.008 34.358,338.233 34.083 L 338.640 33.583 338.287 33.000 C 338.093 32.679,337.857 32.364,337.763 32.300 C 337.356 32.024,335.928 30.881,335.494 30.485 C 334.905 29.947,333.175 28.429,332.115 27.520 C 331.280 26.805,330.455 26.612,330.033 27.033 M101.384 39.069 C 102.292 39.806,103.101 41.516,103.425 43.383 C 103.862 45.900,103.550 46.464,102.021 45.924 C 101.620 45.783,101.118 45.667,100.906 45.667 C 100.693 45.667,100.473 45.592,100.417 45.500 C 100.360 45.408,100.200 45.333,100.062 45.333 C 99.294 45.333,97.858 43.138,97.554 41.500 C 97.475 41.076,98.332 39.012,98.718 38.695 C 99.309 38.210,100.537 38.383,101.384 39.069 M166.633 38.953 C 167.412 39.533,168.265 40.926,168.501 42.000 C 168.611 42.504,168.812 43.367,168.947 43.917 C 169.491 46.139,168.495 46.551,165.465 45.358 C 164.966 45.161,163.799 44.059,163.502 43.504 C 161.872 40.458,164.170 37.118,166.633 38.953 M211.161 39.414 C 212.860 40.292,211.824 45.528,209.789 46.345 C 209.493 46.464,209.038 46.735,208.779 46.947 C 208.520 47.160,208.203 47.333,208.076 47.333 C 207.948 47.333,207.269 47.521,206.567 47.750 C 205.865 47.979,205.259 48.167,205.220 48.167 C 204.625 48.167,204.689 46.649,205.382 44.333 C 206.623 40.184,208.901 38.245,211.161 39.414 M159.997 41.243 C 160.083 41.468,160.110 42.011,160.059 42.451 C 159.706 45.451,163.515 48.500,167.615 48.500 C 168.146 48.500,168.533 48.589,168.658 48.740 C 169.019 49.174,168.479 51.760,167.841 52.656 C 167.653 52.920,167.500 53.195,167.500 53.269 C 167.500 53.480,166.120 54.833,165.904 54.833 C 165.798 54.833,165.502 54.998,165.246 55.200 C 164.551 55.746,162.168 55.845,161.239 55.367 C 158.236 53.820,157.062 49.147,158.237 43.416 C 158.566 41.810,159.687 40.426,159.997 41.243 M59.062 41.324 C 59.961 41.533,60.078 41.698,59.762 42.309 C 59.173 43.449,57.478 43.349,55.917 42.082 C 55.069 41.394,57.176 40.887,59.062 41.324 M94.150 41.486 C 94.314 41.590,94.353 41.816,94.281 42.255 C 94.026 43.832,96.051 46.729,97.850 47.359 C 100.919 48.434,101.930 48.639,102.542 48.311 C 103.257 47.928,103.663 48.744,103.414 50.067 C 102.495 54.958,97.527 57.430,94.599 54.454 C 92.418 52.237,91.636 47.701,92.732 43.621 C 93.317 41.440,93.542 41.101,94.150 41.486 M261.728 52.611 C 263.396 54.752,261.764 57.475,259.337 56.599 C 258.397 56.259,258.316 54.708,259.190 53.770 C 259.361 53.587,259.500 53.368,259.500 53.283 C 259.500 53.123,260.838 51.852,261.019 51.840 C 261.076 51.836,261.395 52.183,261.728 52.611 M285.667 54.758 C 285.254 54.877,284.151 54.979,283.216 54.987 C 281.311 55.002,280.775 55.169,280.500 55.833 C 280.041 56.940,281.125 58.018,283.004 58.322 C 284.558 58.574,359.830 58.568,361.279 58.316 C 363.227 57.977,364.281 56.852,363.723 55.710 L 363.417 55.083 361.667 55.000 C 360.704 54.954,359.753 54.823,359.553 54.708 C 359.040 54.415,356.097 54.440,355.250 54.745 C 354.295 55.089,349.063 55.091,347.932 54.748 C 346.890 54.432,344.888 54.433,344.333 54.750 C 343.725 55.098,338.891 55.098,338.058 54.750 C 337.180 54.383,307.641 54.383,307.000 54.750 C 306.391 55.098,301.557 55.098,300.724 54.750 C 299.958 54.430,298.121 54.429,297.068 54.748 C 295.902 55.102,290.569 55.103,289.724 54.750 C 288.994 54.445,286.745 54.449,285.667 54.758 M7.204 69.426 C 6.945 69.607,6.833 69.856,6.833 70.250 C 6.833 70.644,6.945 70.893,7.204 71.074 C 7.780 71.477,395.563 71.471,396.139 71.067 C 396.676 70.691,396.593 69.680,396.000 69.381 C 395.298 69.028,7.708 69.073,7.204 69.426 " stroke="none" fill="#31f3f3" fill-rule="evenodd"></path></g></svg>